<?xml version="1.0" encoding="UTF-8"?> <svg xmlns="http://www.w3.org/2000/svg" xmlns:xlink="http://www.w3.org/1999/xlink" width="1791.28" height="383.352" viewBox="0 0 1791.28 383.352"><defs><filter id="Union_10" x="150.728" y="299.576" width="82.575" height="83.776" filterUnits="userSpaceOnUse"><feOffset dy="3"></feOffset><feGaussianBlur stdDeviation="3" result="blur"></feGaussianBlur><feFlood flood-opacity="0.161"></feFlood><feComposite operator="in" in2="blur"></feComposite><feComposite in="SourceGraphic"></feComposite></filter><filter id="Union_9" x="1592.065" y="0" width="199.215" height="202.003" filterUnits="userSpaceOnUse"><feOffset dy="3"></feOffset><feGaussianBlur stdDeviation="3" result="blur-2"></feGaussianBlur><feFlood flood-opacity="0.161"></feFlood><feComposite operator="in" in2="blur-2"></feComposite><feComposite in="SourceGraphic"></feComposite></filter><filter id="Union_7" x="1349.005" y="266.686" width="83.264" height="83.776" filterUnits="userSpaceOnUse"><feOffset dy="3"></feOffset><feGaussianBlur stdDeviation="3" result="blur-3"></feGaussianBlur><feFlood flood-opacity="0.161"></feFlood><feComposite operator="in" in2="blur-3"></feComposite><feComposite in="SourceGraphic"></feComposite></filter><filter id="Union_11" x="0" y="59.191" width="160.619" height="162.508" filterUnits="userSpaceOnUse"><feOffset dy="3"></feOffset><feGaussianBlur stdDeviation="3" result="blur-4"></feGaussianBlur><feFlood flood-opacity="0.161"></feFlood><feComposite operator="in" in2="blur-4"></feComposite><feComposite in="SourceGraphic"></feComposite></filter></defs><g id="Group_951" data-name="Group 951" transform="translate(-181.625 33.002)"><g transform="matrix(1, 0, 0, 1, 181.63, -33)" filter="url(#Union_10)"><path id="Union_10-2" data-name="Union 10" d="M32.287,0A32.287,32.287,0,0,1,64.575,32.287v1.2A32.287,32.287,0,0,1,0,33.489v-1.2A32.287,32.287,0,0,1,32.287,0Z" transform="translate(159.73 305.58)" fill="#a8fffd"></path></g><g transform="matrix(1, 0, 0, 1, 181.63, -33)" filter="url(#Union_9)"><path id="Union_9-2" data-name="Union 9" d="M90.607,0a90.607,90.607,0,0,1,90.607,90.607V93.4A90.607,90.607,0,0,1,0,93.4V90.607A90.607,90.607,0,0,1,90.607,0Z" transform="translate(1601.07 6)" fill="#b4ffc3"></path></g><g transform="matrix(1, 0, 0, 1, 181.63, -33)" filter="url(#Union_7)"><path id="Union_7-2" data-name="Union 7" d="M32.632,0A32.632,32.632,0,0,1,65.264,32.632v.512A32.632,32.632,0,0,1,0,33.144v-.512A32.632,32.632,0,0,1,32.632,0Z" transform="translate(1358 272.69)" fill="#b79bff"></path></g><g transform="matrix(1, 0, 0, 1, 181.63, -33)" filter="url(#Union_11)"><path id="Union_11-2" data-name="Union 11" d="M71.309,0a71.309,71.309,0,0,1,71.309,71.309V73.2A71.309,71.309,0,0,1,0,73.2V71.309A71.309,71.309,0,0,1,71.309,0Z" transform="translate(9 65.19)" fill="#ffd169"></path></g></g></svg> 