<svg width="34" height="34" viewBox="0 0 34 34" fill="none" xmlns="http://www.w3.org/2000/svg">
<g id="arrow (13) 1">
<g id="Vector">
<path d="M17.4834 25.3098C17.4893 25.3041 17.4951 25.2983 17.5008 25.2924L25.2925 17.5007C25.5691 17.2243 25.5692 16.776 25.2927 16.4993C25.2927 16.4993 25.2928 16.4994 25.2927 16.4993L17.5008 8.70751C17.2195 8.43574 16.771 8.44352 16.4993 8.72489C16.2342 8.99942 16.2342 9.4346 16.4993 9.70905L23.0818 16.2917L9.20835 16.2917C8.81717 16.2917 8.50001 16.6088 8.50001 17C8.50001 17.3912 8.81717 17.7083 9.20835 17.7083L23.0818 17.7083L16.4992 24.2908C16.2178 24.5626 16.2101 25.011 16.4818 25.2924C16.7536 25.5738 17.2021 25.5816 17.4834 25.3098Z" fill="black" fill-opacity="0.52"/>
<path d="M17.6571 25.4897L17.6576 25.4892C17.6646 25.4824 17.6719 25.4752 17.6794 25.4674L25.4692 17.6775C25.4692 17.6775 25.4692 17.6775 25.4693 17.6775C25.8425 17.3044 25.8436 16.7 25.4724 16.3256C25.4707 16.3238 25.4688 16.3219 25.4669 16.32L17.6776 8.53073L17.6776 8.5307L17.6745 8.52769C17.2938 8.16 16.6872 8.17053 16.3195 8.5512L16.3194 8.55122C15.9608 8.92262 15.9608 9.51139 16.3195 9.88274L16.3194 9.88276L16.3225 9.88582L22.4783 16.0417L9.20835 16.0417C8.6791 16.0417 8.25001 16.4707 8.25001 17C8.25001 17.5292 8.6791 17.9583 9.20835 17.9583L22.4782 17.9583L16.3238 24.1126C15.9448 24.4805 15.9349 25.0859 16.302 25.466C16.6697 25.8468 17.2765 25.8574 17.6571 25.4897ZM25.5368 16.553C25.534 16.5659 25.529 16.5835 25.52 16.6032C25.5284 16.5848 25.5336 16.5674 25.5368 16.553ZM25.1312 16.3085C25.1258 16.3131 25.1207 16.3178 25.1159 16.3226L25.1158 16.3225C25.1206 16.3177 25.1257 16.3131 25.1312 16.3085ZM25.2169 16.2611C25.2073 16.2641 25.1981 16.2677 25.1895 16.2716C25.2086 16.2629 25.2273 16.2573 25.2451 16.2539C25.2359 16.2557 25.2265 16.258 25.2169 16.2611Z" stroke="black" stroke-opacity="0.52" stroke-width="0.5"/>
</g>
</g>
</svg>
