<svg width="34" height="34" viewBox="0 0 34 34" fill="none" xmlns="http://www.w3.org/2000/svg">
<g id="arrow (13) 2">
<g id="Vector">
<path d="M16.5166 25.3098C16.5107 25.3041 16.5049 25.2983 16.4992 25.2924L8.70751 17.5007C8.4309 17.2243 8.43082 16.776 8.70734 16.4993C8.70734 16.4993 8.70725 16.4994 8.70734 16.4993L16.4992 8.70751C16.7805 8.43574 17.229 8.44352 17.5007 8.72489C17.7658 8.99942 17.7658 9.4346 17.5007 9.70905L10.9182 16.2917L24.7917 16.2917C25.1828 16.2917 25.5 16.6088 25.5 17C25.5 17.3912 25.1828 17.7083 24.7917 17.7083L10.9182 17.7083L17.5008 24.2908C17.7822 24.5626 17.7899 25.011 17.5182 25.2924C17.2464 25.5738 16.7979 25.5816 16.5166 25.3098Z" fill="black" fill-opacity="0.52"/>
<path d="M16.3429 25.4897L16.3424 25.4892C16.3354 25.4824 16.3281 25.4752 16.3206 25.4674L8.53079 17.6775C8.53077 17.6775 8.53075 17.6775 8.53073 17.6775C8.15748 17.3044 8.15643 16.7 8.52756 16.3256C8.52932 16.3238 8.53118 16.3219 8.53314 16.32L16.3224 8.53073L16.3224 8.5307L16.3255 8.52769C16.7062 8.16 17.3128 8.17053 17.6805 8.5512L17.6806 8.55122C18.0392 8.92262 18.0392 9.51139 17.6805 9.88274L17.6806 9.88276L17.6775 9.88582L11.5217 16.0417L24.7917 16.0417C25.3209 16.0417 25.75 16.4707 25.75 17C25.75 17.5292 25.3209 17.9583 24.7917 17.9583L11.5218 17.9583L17.6762 24.1126C18.0552 24.4805 18.0651 25.0859 17.698 25.466C17.3303 25.8468 16.7235 25.8574 16.3429 25.4897ZM8.46315 16.553C8.46599 16.5659 8.47095 16.5835 8.47996 16.6032C8.47159 16.5848 8.46638 16.5674 8.46315 16.553ZM8.86882 16.3085C8.87425 16.3131 8.87934 16.3178 8.8841 16.3226L8.88417 16.3225C8.87937 16.3177 8.87427 16.3131 8.86882 16.3085ZM8.78308 16.2611C8.79273 16.2641 8.80187 16.2677 8.81051 16.2716C8.79142 16.2629 8.77269 16.2573 8.75494 16.2539C8.76412 16.2557 8.77352 16.258 8.78308 16.2611Z" stroke="black" stroke-opacity="0.52" stroke-width="0.5"/>
</g>
</g>
</svg>
