<?xml version="1.0" encoding="utf-8"?>
<!-- Generator: Adobe Illustrator 25.2.3, SVG Export Plug-In . SVG Version: 6.00 Build 0)  -->
<svg version="1.1" id="Layer_1" xmlns="http://www.w3.org/2000/svg" xmlns:xlink="http://www.w3.org/1999/xlink" x="0px" y="0px"
	 viewBox="0 0 20 10" style="enable-background:new 0 0 20 10;" xml:space="preserve">
<path id="Arrow_Up_Right" d="M0.1,5c0,0.3,0.3,0.6,0.6,0.6h17.2l-3.2,3.2c-0.2,0.2-0.2,0.6,0,0.8c0.2,0.2,0.6,0.2,0.8,0l4.2-4.2
	c0.1-0.1,0.2-0.3,0.2-0.4c0-0.2-0.1-0.3-0.2-0.4l-4.2-4.2c-0.2-0.2-0.6-0.2-0.8,0s-0.2,0.6,0,0.8l3.2,3.2H0.6C0.3,4.4,0.1,4.6,0.1,5
	z"/>
</svg>
