<?xml version="1.0" encoding="utf-8"?>
<!-- Generator: Adobe Illustrator 24.0.0, SVG Export Plug-In . SVG Version: 6.00 Build 0)  -->
<svg version="1.1" id="Layer_1" xmlns="http://www.w3.org/2000/svg" xmlns:xlink="http://www.w3.org/1999/xlink" x="0px" y="0px"
	 viewBox="0 0 20 20" style="enable-background:new 0 0 20 20;" xml:space="preserve">
<style type="text/css">
	.st0{fill:#FFFFFF;stroke:#3452C0;stroke-width:2;stroke-miterlimit:10;}
	.st1{fill:#3452C0;}
</style>
<circle class="st0" cx="10" cy="10" r="8"/>
<path id="Type-something-Copy-3" class="st1" d="M13.8,8.2c0,0.1-0.1,0.3-0.2,0.4l-4.3,4.3C9.3,12.9,9.2,13,9,13
	c-0.2,0-0.3-0.1-0.4-0.2l-2.5-2.5C6.1,10.3,6,10.2,6,10s0.1-0.3,0.2-0.4l0.7-0.7c0.2,0,0.3-0.1,0.4-0.1c0.2,0,0.3,0.1,0.4,0.2
	l1.4,1.4l3.3-3.3C12.5,7.1,12.6,7,12.7,7c0.1,0,0.3,0.1,0.4,0.2l0.7,0.7C13.8,8,13.8,8,13.8,8.2z"/>
</svg>
