<svg width="25" height="25" viewBox="0 0 25 25" fill="none" xmlns="http://www.w3.org/2000/svg">
<g clip-path="url(#clip0_92_113)">
<path opacity="0.32" d="M12.6365 24.7085C19.2639 24.7085 24.6365 19.3359 24.6365 12.7085C24.6365 6.08108 19.2639 0.708496 12.6365 0.708496C6.00906 0.708496 0.636475 6.08108 0.636475 12.7085C0.636475 19.3359 6.00906 24.7085 12.6365 24.7085Z" fill="#A9D2FF"/>
<path fill-rule="evenodd" clip-rule="evenodd" d="M17.7364 8.0584L10.5364 14.9584L8.73643 13.0084C8.28643 12.7084 7.83643 12.5584 7.38643 12.8584C7.08643 13.1584 6.93643 13.7584 7.08643 14.0584L9.33643 17.6584C9.63643 17.9584 9.93643 18.2584 10.3864 18.2584C10.8364 18.2584 11.1364 18.1084 11.4364 17.6584C11.7364 17.3584 18.6364 9.1084 18.6364 9.1084C19.5364 8.2084 18.4864 7.4584 17.7364 8.0584Z" fill="#007BFF"/>
</g>
<defs>
<clipPath id="clip0_92_113">
<rect width="24" height="24" fill="white" transform="translate(0.636475 0.708496)"/>
</clipPath>
</defs>
</svg>
