<?xml version="1.0" encoding="utf-8"?>
<!-- Generator: Adobe Illustrator 25.2.3, SVG Export Plug-In . SVG Version: 6.00 Build 0)  -->
<svg version="1.1" id="Layer_1" xmlns="http://www.w3.org/2000/svg" xmlns:xlink="http://www.w3.org/1999/xlink" x="0px" y="0px"
	 viewBox="0 0 80 80" style="enable-background:new 0 0 80 80;" xml:space="preserve">
<style type="text/css">
	.st0{opacity:0.4;fill:#525252;}
	.st1{fill:#515151;}
</style>
<g>
	<path class="st0" d="M69.6,80H10C4.5,80,0,75.5,0,70V10.2c0-5.5,4.5-10,10-10h59.5c5.5,0,10,4.5,10,10V70
		C79.6,75.5,75.1,80,69.6,80z"/>
	<path class="st1" d="M33,38.4l9.6-9.6c0.9-0.9,2.3-0.9,3.2,0l0.8,0.8c0.9,0.9,0.9,2.3,0,3.2l-7.3,7.3l7.3,7.3
		c0.9,0.9,0.9,2.3,0,3.2l-0.8,0.8c-0.9,0.9-2.3,0.9-3.2,0L33,41.8c-0.5-0.5-0.7-1.1-0.6-1.7C32.3,39.5,32.5,38.8,33,38.4z"/>
</g>
</svg>
