<?xml version="1.0" encoding="UTF-8"?> <svg xmlns="http://www.w3.org/2000/svg" width="577" height="629" viewBox="0 0 577 629" fill="none"><path d="M81.5324 162.127L98.6675 165.599C105.283 152.823 113.339 140.847 122.679 129.903L112.225 115.467L116.648 93.6405L180.189 51.5144L202.627 56.0618L212.224 70.5362C225.963 66.2879 240.121 63.5322 254.451 62.317L257.924 45.1819L276.324 32.9832L350.984 48.1137L363.182 66.5133L359.71 83.6484C372.391 90.3009 384.294 98.34 395.202 107.618L409.88 98.0632L431.503 102.445L473.629 165.985L469.206 187.812L454.527 197.367C458.841 211.114 461.665 225.285 462.95 239.636L480.086 243.109L492.284 261.508L477.195 335.964L458.795 348.163L441.66 344.691C434.89 357.409 426.771 369.362 417.445 380.345L427.246 394.861L422.864 416.484L359.323 458.61L337.701 454.228L327.9 439.712C314.241 444.012 300.147 446.782 285.876 447.973L282.404 465.108L264.004 477.306L189.344 462.176L177.146 443.776L180.618 426.641C167.871 419.977 155.9 411.924 144.922 402.63L130.448 412.227L108.825 407.844L65.8829 344.139L70.2649 322.516L84.7393 312.92C80.3977 299.204 77.64 285.035 76.5201 270.692L60.201 267.385L48.0023 248.985L63.1328 174.325L81.5324 162.127ZM81.7012 239.887L95.3684 242.657L108.025 257.751C108.159 276.921 111.876 295.897 118.984 313.701L112.896 332.217L101.324 340.066L126.209 377.601L137.781 369.753L157.37 371.599C171.062 385.004 187.079 395.805 204.638 403.477L213.614 421.011L210.844 434.678L254.906 443.608L257.676 429.94L272.77 417.284C292.129 417.168 311.302 413.495 329.332 406.448L347.89 412.333L355.697 424.109L393.232 399.223L385.425 387.448L387.23 368.063C400.561 354.311 411.353 338.308 419.108 320.795L436.438 311.777L450.309 314.588L459.197 270.731L445.326 267.92L432.874 252.866C432.55 233.716 428.839 214.774 421.914 196.916L427.799 178.359L439.574 170.552L414.689 133.016L402.913 140.824L383.529 139.019C369.644 126.018 353.572 115.571 336.054 108.161L327.078 90.6267L329.847 76.9595L285.786 68.03L283.016 81.6973L267.921 94.3534C248.893 94.2825 230.009 97.6499 212.178 104.293L193.417 98.3675L185.813 86.633L148.278 111.518L155.881 123.253L154.281 142.678C140.802 156.31 129.99 172.342 122.403 189.947L104.869 198.923L91.2012 196.153L81.7012 239.887Z" fill="#0949E7"></path><path d="M293.438 140.299C316.136 144.941 336.948 156.207 353.245 172.673C369.542 189.138 380.592 210.066 385 232.81C389.408 255.554 386.975 279.094 378.008 300.456C369.042 321.818 353.944 340.042 334.624 352.827C315.304 365.611 292.627 372.382 269.46 372.283C246.293 372.184 223.675 365.22 204.464 352.271C185.254 339.323 170.313 320.97 161.529 299.532C152.745 278.095 150.513 254.535 155.114 231.829C161.345 201.362 179.41 174.613 205.343 157.452C231.277 140.292 262.96 134.123 293.438 140.299Z" fill="#0949E7"></path><path d="M183.968 553.678L377.961 592.993L656.814 649.504L850.808 688.819L973.835 81.7475L306.996 -53.3928L301.993 -28.7102L271.395 -34.9112L279.498 -74.893L297.897 -87.0917L995.336 54.2496L1007.53 72.6493L878.306 710.319L859.906 722.518L668.768 683.782L665.635 775.739L702.353 783.18L696.152 813.779L646.379 803.692L327.544 739.077L277.771 728.99L283.972 698.392L320.894 705.874L353.605 619.912L162.468 581.176L150.269 562.777L158.372 522.795L188.97 528.996L183.968 553.678Z" fill="#0949E7"></path><path d="M531.461 552.321C511.971 548.371 499.373 529.369 503.323 509.879C507.273 490.389 526.274 477.791 545.765 481.741C565.255 485.691 577.853 504.692 573.903 524.183C569.953 543.673 550.951 556.271 531.461 552.321Z" fill="#0949E7"></path><path d="M554.221 143.455L646.187 110.913L656.603 140.206L589.109 164.117L641.969 212.418L620.929 235.55L548.888 169.77L554.221 143.455Z" fill="#0949E7"></path></svg> 