<?xml version="1.0" encoding="utf-8"?>
<!-- Generator: Adobe Illustrator 26.2.1, SVG Export Plug-In . SVG Version: 6.00 Build 0)  -->
<svg version="1.1" id="Layer_1" xmlns="http://www.w3.org/2000/svg" xmlns:xlink="http://www.w3.org/1999/xlink" x="0px" y="0px"
	 viewBox="0 0 512 512" style="enable-background:new 0 0 512 512;" xml:space="preserve">
<style type="text/css">
	.st0{display:none;fill:#1778F2;}
	.st1{fill:#FFFFFF;}
</style>
<g transform="translate(-136 -677)">
	<path class="st0" d="M392.5,684L392.5,684C530.3,684,642,795.7,642,933.5l0,0c0,137.8-111.7,249.5-249.5,249.5l0,0
		C254.7,1183,143,1071.3,143,933.5l0,0C143,795.7,254.7,684,392.5,684z"/>
	<path class="st1" d="M412.4,1074.3V940.8h44.8l6.7-52h-51.6v-33.2c0-15.1,4.2-25.3,25.8-25.3h27.6v-46.5c-13.3-1.4-26.7-2.1-40.2-2
		c-39.7,0-66.9,24.3-66.9,68.8V889h-44.9v52h44.9v133.6h53.8V1074.3z"/>
</g>
</svg>
