<svg width="25" height="25" viewBox="0 0 25 25" fill="none" xmlns="http://www.w3.org/2000/svg">
<path d="M12.4996 1.56348C6.46846 1.56348 1.5625 6.46944 1.5625 12.5005C1.5625 18.5317 6.46846 23.4376 12.4996 23.4376C18.5307 23.4376 23.4366 18.5317 23.4366 12.5005C23.4366 6.46944 18.5307 1.56348 12.4996 1.56348ZM10.4031 3.36851C9.2933 4.66717 8.41477 6.17009 7.83362 7.81324H4.38526C5.66795 5.5938 7.82997 3.95473 10.4031 3.36851ZM14.5976 3.37004C17.1699 3.95661 19.3315 5.5943 20.6139 7.81324H17.1655C16.5846 6.17086 15.7067 4.66823 14.5976 3.37004ZM12.4996 3.44627C13.7829 4.66438 14.8025 6.14712 15.478 7.81315H9.52117C10.1967 6.14715 11.2162 4.66438 12.4996 3.44627ZM3.66813 9.37561H7.38045C7.15207 10.3809 7.03103 11.4272 7.03103 12.5004C7.03103 13.5741 7.15195 14.6199 7.38045 15.6254H3.66813C3.32291 14.647 3.12494 13.5986 3.12494 12.5004C3.12494 11.4023 3.32291 10.354 3.66813 9.37561ZM9.00087 9.37561H15.9983C16.2558 10.3755 16.4057 11.4189 16.4057 12.5004C16.4057 13.582 16.2558 14.6257 15.9983 15.6254H9.00087C8.74328 14.6255 8.59347 13.5822 8.59347 12.5004C8.59347 11.419 8.74341 10.3754 9.00087 9.37561ZM17.6187 9.37561H21.331C21.6762 10.354 21.8742 11.4023 21.8742 12.5004C21.8742 13.5986 21.6762 14.647 21.331 15.6254H17.6187C17.8471 14.6201 17.9681 13.5739 17.9681 12.5004C17.9681 11.427 17.8471 10.3811 17.6187 9.37561ZM4.38526 17.1877H7.83362C8.41486 18.8305 9.29325 20.3341 10.4031 21.6325C7.82997 21.0463 5.66795 19.4072 4.38526 17.1877ZM9.52117 17.1877H15.478C14.8025 18.8534 13.7829 20.3352 12.4996 21.5532C11.2165 20.3354 10.1966 18.8531 9.52117 17.1877ZM17.1655 17.1877H20.6139C19.3312 19.4072 17.1692 21.0463 14.596 21.6325C15.7062 20.3339 16.5842 18.8309 17.1655 17.1877Z" fill="#4C597B"/>
</svg>
