<svg width="26" height="26" viewBox="0 0 26 26" fill="none" xmlns="http://www.w3.org/2000/svg">
<path d="M5.28475 18.0362H6.84725C7.10767 18.0362 7.36808 17.7758 7.36808 17.5154V11.7862C7.36808 11.5258 7.10767 11.2654 6.84725 11.2654H6.32642V10.7445C6.32642 7.30705 9.13892 4.49455 12.5764 4.49455C14.2431 4.49455 15.8056 5.11955 17.0035 6.31746C18.2014 7.51538 18.8264 9.07788 18.8264 10.7445V11.2654H18.3056C18.0452 11.2654 17.7847 11.5258 17.7847 11.7862V17.5154C17.7847 17.7758 18.0452 18.0362 18.3056 18.0362H18.7743C18.5139 19.4945 17.2639 20.6404 15.7014 20.6404H14.6077C14.5035 20.0675 13.9827 19.5987 13.3577 19.5987H11.7952C11.066 19.5987 10.4931 20.1716 10.4931 20.9008C10.4931 21.63 11.066 22.2029 11.7952 22.2029H13.3577C13.7743 22.2029 14.1389 21.9945 14.3993 21.682H15.7014C17.8368 21.682 19.5556 20.0675 19.816 18.0362H19.8681C21.0139 18.0362 21.9514 17.0987 21.9514 15.9529V13.3487C21.9514 12.2029 21.0139 11.2654 19.8681 11.2654V10.7445C19.8681 8.81746 19.0868 6.94246 17.7327 5.5883C16.3785 4.23413 14.5035 3.45288 12.5764 3.45288C8.566 3.45288 5.28475 6.73413 5.28475 10.7445V11.2654C4.13892 11.2654 3.20142 12.2029 3.20142 13.3487V15.9529C3.20142 17.0987 4.13892 18.0362 5.28475 18.0362Z" fill="#657079"/>
</svg>
