<svg width="32" height="32" viewBox="0 0 32 32" fill="none" xmlns="http://www.w3.org/2000/svg">
<circle cx="14" cy="14" r="15" transform="matrix(-4.37114e-08 1 1 4.37114e-08 2 2)" stroke="#0040DF" stroke-width="2"/>
<g clip-path="url(#clip0_322_534)">
<path d="M20.218 16.0004C20.2181 16.244 20.1244 16.4793 19.9548 16.6538C19.9547 16.6539 19.9546 16.654 19.9545 16.6541L14.0362 22.758L14.0362 22.7581L14.0332 22.7611C13.6807 23.1122 13.1189 23.1122 12.7665 22.7611C12.4094 22.4054 12.3998 21.8219 12.7443 21.4541L12.7443 21.4541L12.7473 21.451L18.0323 16.0003L12.7474 10.5495L12.7474 10.5495L12.7444 10.5464C12.4082 10.1874 12.4083 9.62123 12.7444 9.26224L12.7444 9.26222C13.093 8.89002 13.6718 8.87937 14.0332 9.23936L14.0332 9.23933L14.0362 9.24244L19.9545 15.3464C19.9546 15.3465 19.9547 15.3466 19.9548 15.3467C20.1244 15.5212 20.2183 15.7566 20.218 16.0004ZM20.218 16.0004C20.218 16.0003 20.218 16.0002 20.218 16.0001L19.968 16.0003L20.218 16.0006C20.218 16.0006 20.218 16.0005 20.218 16.0004Z" fill="#0040DF" stroke="#0040DF" stroke-width="0.5"/>
</g>
<defs>
<clipPath id="clip0_322_534">
<rect width="20.7742" height="11.7419" fill="white" transform="matrix(-4.37114e-08 1 1 4.37114e-08 10.9355 5.61328)"/>
</clipPath>
</defs>
</svg>
