<?xml version="1.0" encoding="utf-8"?>
<!-- Generator: Adobe Illustrator 26.2.1, SVG Export Plug-In . SVG Version: 6.00 Build 0)  -->
<svg version="1.1" id="Layer_1" xmlns="http://www.w3.org/2000/svg" xmlns:xlink="http://www.w3.org/1999/xlink" x="0px" y="0px"
	 viewBox="0 0 512 512" style="enable-background:new 0 0 512 512;" xml:space="preserve">
<style type="text/css">
	.st0{display:none;fill:#0A7BBA;}
	.st1{fill:#FFFFFF;}
</style>
<g>
	<path class="st0" d="M506,256.9c0,138.1-111.9,250-250,250S6,395,6,256.9s111.9-250,250-250C394.1,6.9,506,118.8,506,256.9z"/>
	<path class="st1" d="M405.4,277v103.1h-59.8v-96.2c0-24.2-8.6-40.6-30.3-40.6c-16.5,0-26.3,11.1-30.6,21.9c-1.6,3.8-2,9.2-2,14.6
		v100.4h-59.8c0,0,0.8-162.9,0-179.7h59.8V226c-0.1,0.2-0.3,0.4-0.4,0.6h0.4V226c7.9-12.2,22.1-29.7,53.9-29.7
		C375.9,196.1,405.4,221.8,405.4,277L405.4,277z M160.5,113.7c-20.5,0-33.8,13.4-33.8,31.1c0,17.3,13,31,33,31h0.4
		c20.8,0,33.8-13.8,33.8-31C193.5,127.1,180.9,113.7,160.5,113.7z M130.2,380.1h59.7V200.3h-59.7V380.1z"/>
</g>
</svg>
