<?xml version="1.0" encoding="UTF-8"?> <svg xmlns="http://www.w3.org/2000/svg" width="34" height="34" viewBox="0 0 34 34" fill="none"><path d="M17.6571 25.4898L17.6576 25.4894C17.6646 25.4826 17.6719 25.4753 17.6794 25.4675L25.4692 17.6777C25.4692 17.6777 25.4692 17.6776 25.4693 17.6776C25.8425 17.3045 25.8436 16.7002 25.4724 16.3257C25.4707 16.3239 25.4688 16.322 25.4669 16.3201L17.6776 8.53085L17.6776 8.53083L17.6745 8.52781C17.2938 8.16012 16.6872 8.17065 16.3195 8.55133L16.3194 8.55135C15.9608 8.92274 15.9608 9.51152 16.3195 9.88286L16.3194 9.88289L16.3225 9.88595L22.4783 16.0418L9.20835 16.0418C8.6791 16.0418 8.25001 16.4709 8.25001 17.0001C8.25001 17.5294 8.6791 17.9584 9.20835 17.9584L22.4782 17.9584L16.3238 24.1128C15.9448 24.4806 15.9349 25.086 16.302 25.4662C16.6697 25.8469 17.2765 25.8575 17.6571 25.4898ZM25.1312 16.3086C25.1258 16.3132 25.1207 16.3179 25.1159 16.3227L25.1158 16.3226C25.1206 16.3179 25.1257 16.3132 25.1312 16.3086ZM25.2169 16.2612C25.2073 16.2643 25.1981 16.2678 25.1895 16.2717C25.2086 16.263 25.2273 16.2574 25.2451 16.254C25.2359 16.2558 25.2265 16.2582 25.2169 16.2612ZM25.5368 16.5531C25.534 16.566 25.529 16.5837 25.52 16.6034C25.5284 16.5849 25.5336 16.5676 25.5368 16.5531Z" fill="#0047FF" stroke="#0047FF" stroke-width="0.5"></path></svg> 