<?xml version="1.0" encoding="utf-8"?>
<!-- Generator: Adobe Illustrator 25.2.3, SVG Export Plug-In . SVG Version: 6.00 Build 0)  -->
<svg version="1.1" id="Layer_1" xmlns="http://www.w3.org/2000/svg" xmlns:xlink="http://www.w3.org/1999/xlink" x="0px" y="0px"
	 viewBox="0 0 111 111" style="enable-background:new 0 0 111 111;" xml:space="preserve">
<style type="text/css">
	.st0{opacity:0.7;fill:#044C9A;}
	.st1{fill:#FFFFFF;}
</style>
<g>
	<circle class="st0" cx="55.3" cy="55.6" r="54.6"/>
	<g id="Layer_2_1_">
		<path class="st1" d="M69.8,38.2c-1,1-1,2.5,0,3.4l0,0l11.3,11.6H23.3c-1.5,0-2.5,1-2.5,2.5s1,2.5,2.5,2.5h57.8L69.8,69.5
			c-1,1-1,2.5,0,3.4c1,1,2.5,1,3.4,0L89,57.2c1-0.7,1-2.2,0-3l0,0L73.3,38.5C72.5,37.2,70.8,37.2,69.8,38.2L69.8,38.2z"/>
	</g>
</g>
</svg>
