<svg width="25" height="25" viewBox="0 0 25 25" fill="none" xmlns="http://www.w3.org/2000/svg">
<path d="M20.1364 15.6357C19.0461 15.638 17.9624 15.4658 16.9264 15.1257C16.6826 15.0467 16.4223 15.0328 16.1715 15.0854C15.9207 15.1381 15.6879 15.2554 15.4964 15.4257L13.4964 16.9557C11.3327 15.8739 9.57825 14.1194 8.49642 11.9557L9.97642 9.95569C10.165 9.76695 10.2983 9.53014 10.3618 9.27098C10.4252 9.01182 10.4165 8.74022 10.3364 8.48569C9.99644 7.44971 9.82426 6.36603 9.82642 5.27569C9.82653 5.08099 9.78744 4.88827 9.71146 4.709C9.63548 4.52974 9.52418 4.36762 9.3842 4.2323C9.24421 4.09698 9.07841 3.99123 8.89667 3.92138C8.71494 3.85152 8.521 3.81898 8.32642 3.82569H5.01642C4.63531 3.82831 4.27056 3.98087 4.00108 4.25035C3.73159 4.51984 3.57904 4.88459 3.57642 5.26569C3.57907 9.65686 5.32463 13.8674 8.42965 16.9725C11.5347 20.0775 15.7452 21.823 20.1364 21.8257C20.5175 21.8231 20.8823 21.6705 21.1518 21.401C21.4212 21.1315 21.5738 20.7668 21.5764 20.3857V17.0857C21.5764 16.7029 21.425 16.3355 21.1553 16.0639C20.8855 15.7923 20.5192 15.6383 20.1364 15.6357Z" fill="#657079"/>
</svg>
