<svg width="25" height="25" viewBox="0 0 25 25" fill="none" xmlns="http://www.w3.org/2000/svg">
<path d="M20.375 15.4271C19.2392 15.4295 18.1104 15.2502 17.0312 14.8959C16.7773 14.8136 16.5062 14.7991 16.2449 14.8539C15.9836 14.9088 15.7412 15.0309 15.5417 15.2084L13.4583 16.8021C11.2045 15.6752 9.37691 13.8477 8.25 11.5938L9.79167 9.51046C9.98813 9.31386 10.127 9.06718 10.1931 8.79722C10.2592 8.52726 10.25 8.24435 10.1667 7.97921C9.81252 6.90006 9.63317 5.77123 9.63542 4.63546C9.63554 4.43265 9.59481 4.23189 9.51567 4.04516C9.43653 3.85843 9.32059 3.68955 9.17477 3.54859C9.02895 3.40763 8.85624 3.29748 8.66694 3.22472C8.47763 3.15195 8.27561 3.11805 8.07292 3.12504H4.625C4.22802 3.12777 3.84807 3.28668 3.56736 3.5674C3.28664 3.84811 3.12773 4.22806 3.125 4.62504C3.12776 9.19918 4.94605 13.5852 8.18046 16.8196C11.4149 20.054 15.8009 21.8723 20.375 21.875C20.772 21.8723 21.1519 21.7134 21.4326 21.4327C21.7134 21.152 21.8723 20.772 21.875 20.375V16.9375C21.875 16.5388 21.7173 16.1561 21.4363 15.8732C21.1553 15.5902 20.7738 15.4299 20.375 15.4271Z" fill="white"/>
</svg>
