<svg width="23" height="23" viewBox="0 0 23 23" fill="none" xmlns="http://www.w3.org/2000/svg">
<path d="M16.1598 8.98484V7.15151C16.1598 4.58484 14.1432 2.56818 11.5765 2.56818C9.00983 2.56818 6.99316 4.58484 6.99316 7.15151V8.98484C5.43483 8.98484 4.24316 10.1765 4.24316 11.7348V18.1515C4.24316 19.7098 5.43483 20.9015 6.99316 20.9015H16.1598C17.7182 20.9015 18.9098 19.7098 18.9098 18.1515V11.7348C18.9098 10.1765 17.7182 8.98484 16.1598 8.98484ZM8.8265 7.15151C8.8265 5.59318 10.0182 4.40151 11.5765 4.40151C13.1348 4.40151 14.3265 5.59318 14.3265 7.15151V8.98484H8.8265V7.15151ZM12.4932 16.3182C12.4932 16.8682 12.1265 17.2348 11.5765 17.2348C11.0265 17.2348 10.6598 16.8682 10.6598 16.3182V13.5682C10.6598 13.0182 11.0265 12.6515 11.5765 12.6515C12.1265 12.6515 12.4932 13.0182 12.4932 13.5682V16.3182Z" fill="#657079"/>
</svg>
