<?xml version="1.0" encoding="UTF-8"?> <svg xmlns="http://www.w3.org/2000/svg" width="35" height="35" viewBox="0 0 35 35" fill="none"><path d="M10.2083 23.3333C11.4165 23.3333 12.3958 22.3539 12.3958 21.1458C12.3958 19.9376 11.4165 18.9583 10.2083 18.9583C9.00021 18.9583 8.02083 19.9376 8.02083 21.1458C8.02083 22.3539 9.00021 23.3333 10.2083 23.3333Z" fill="#608DFF"></path><path d="M16.7708 16.8918C17.979 16.8918 18.9583 15.9125 18.9583 14.7043C18.9583 13.4962 17.979 12.5168 16.7708 12.5168C15.5627 12.5168 14.5833 13.4962 14.5833 14.7043C14.5833 15.9125 15.5627 16.8918 16.7708 16.8918Z" fill="#608DFF"></path><path d="M21.6315 21.5105C22.8396 21.5105 23.819 20.5311 23.819 19.323C23.819 18.1149 22.8396 17.1355 21.6315 17.1355C20.4233 17.1355 19.444 18.1149 19.444 19.323C19.444 20.5311 20.4233 21.5105 21.6315 21.5105Z" fill="#608DFF"></path><path d="M21.5177 17.147L18.9437 14.5745C18.9467 14.6182 18.9569 14.6605 18.9569 14.7043C18.9569 15.798 18.1519 16.6963 17.1033 16.8582L19.4542 19.209C19.4816 18.671 19.7077 18.1623 20.0886 17.7814C20.4695 17.4005 20.9782 17.1744 21.5162 17.147H21.5177Z" fill="#DFE8FF"></path><path d="M29.1667 13.8542C30.3748 13.8542 31.3542 12.8749 31.3542 11.6667C31.3542 10.4586 30.3748 9.47925 29.1667 9.47925C27.9585 9.47925 26.9792 10.4586 26.9792 11.6667C26.9792 12.8749 27.9585 13.8542 29.1667 13.8542Z" fill="#608DFF"></path><path d="M27.001 11.8914L21.7452 17.1472C22.8608 17.2055 23.749 18.0936 23.8073 19.2093L29.1623 13.8543C28.6231 13.8523 28.1037 13.6505 27.7046 13.288C27.3054 12.9255 27.0548 12.4279 27.001 11.8914ZM14.5833 14.7045C14.5833 14.6607 14.5935 14.6184 14.5965 14.5747L10.2127 18.9584C10.7519 18.9604 11.2713 19.1622 11.6704 19.5247C12.0696 19.8872 12.3202 20.3848 12.374 20.9214L16.4369 16.8584C15.9215 16.78 15.4513 16.5197 15.1113 16.1246C14.7713 15.7295 14.584 15.2257 14.5833 14.7045Z" fill="#DFE8FF"></path><path d="M29.8958 32.0834H3.64583C3.25931 32.0834 2.8886 31.93 2.61515 31.6568C2.3417 31.3836 2.18789 31.0131 2.1875 30.6265V4.37508C2.1875 3.98831 2.34115 3.61737 2.61464 3.34388C2.88813 3.07039 3.25906 2.91675 3.64583 2.91675C4.03261 2.91675 4.40354 3.07039 4.67703 3.34388C4.95052 3.61737 5.10417 3.98831 5.10417 4.37508V29.1667H29.8958C30.2826 29.1667 30.6535 29.3204 30.927 29.5939C31.2005 29.8674 31.3542 30.2383 31.3542 30.6251C31.3542 31.0119 31.2005 31.3828 30.927 31.6563C30.6535 31.9298 30.2826 32.0834 29.8958 32.0834Z" fill="#0040DF"></path></svg> 