<?xml version="1.0" encoding="UTF-8"?> <svg xmlns="http://www.w3.org/2000/svg" width="35" height="35" viewBox="0 0 35 35" fill="none"><path d="M22.7501 24H9.00378C7.78003 24.0013 6.59834 23.5405 5.68264 22.7051C4.76694 21.8697 4.18084 20.7175 4.03543 19.4671C3.89001 18.2167 4.19538 16.9548 4.89366 15.9205C5.59194 14.8863 6.63461 14.1516 7.8241 13.8557C8.06806 11.9006 8.92882 10.0819 10.2742 8.67893C11.6197 7.27593 13.3753 6.36615 15.2718 6.08927C17.1682 5.81238 19.1005 6.18371 20.772 7.14622C22.4435 8.10874 23.7619 9.60924 24.5246 11.4174C25.9647 11.8545 27.2034 12.8112 28.0136 14.1121C28.8237 15.413 29.1509 16.9709 28.9353 18.5C28.7196 20.0291 27.9755 21.4269 26.8395 22.4371C25.7034 23.4474 24.2515 24.0022 22.7501 24Z" fill="#608DFF"></path><path d="M26.1996 11.2083C26.1153 11.2083 26.0321 11.1902 25.9565 11.1555C25.8809 11.1209 25.8148 11.0705 25.7635 11.0084C25.7122 10.9463 25.677 10.8741 25.6606 10.7973C25.6442 10.7205 25.647 10.6413 25.6688 10.5657L26.6622 7.125H24.5501C24.4657 7.12501 24.3825 7.107 24.3068 7.07237C24.2311 7.03774 24.165 6.98742 24.1136 6.92529C24.0623 6.86317 24.027 6.79091 24.0106 6.71411C23.9941 6.6373 23.9969 6.55802 24.0188 6.48239L25.4928 1.37822C25.5241 1.26987 25.593 1.1741 25.6889 1.10574C25.7847 1.03737 25.9022 1.00021 26.023 1H29.8732C29.9576 0.99999 30.0408 1.018 30.1165 1.05263C30.1922 1.08726 30.2583 1.13758 30.3096 1.19971C30.361 1.26183 30.3963 1.33409 30.4127 1.41089C30.4292 1.4877 30.4264 1.56698 30.4045 1.64261L29.706 4.0625H32.1998C32.3064 4.06246 32.4107 4.09117 32.5 4.14513C32.5894 4.19909 32.6599 4.27598 32.703 4.36645C32.7461 4.45691 32.76 4.55705 32.7429 4.65469C32.7258 4.75233 32.6785 4.84326 32.6068 4.91643L26.6061 11.0414C26.5545 11.094 26.4917 11.136 26.4216 11.1648C26.3515 11.1935 26.2757 11.2084 26.1991 11.2083H26.1996Z" fill="#0040DF"></path><path d="M10.25 24V27.5C10.25 28.144 9.69 28.6667 9 28.6667H5.25C4.91848 28.6667 4.60054 28.7896 4.36612 29.0084C4.1317 29.2272 4 29.5239 4 29.8333C4 30.1428 4.1317 30.4395 4.36612 30.6583C4.60054 30.8771 4.91848 31 5.25 31H9C9.99426 30.9991 10.9475 30.63 11.6506 29.9739C12.3536 29.3177 12.749 28.428 12.75 27.5V24H10.25ZM15.25 24V29.8333C15.25 30.1428 15.3817 30.4395 15.6161 30.6583C15.8505 30.8771 16.1685 31 16.5 31C16.8315 31 17.1495 30.8771 17.3839 30.6583C17.6183 30.4395 17.75 30.1428 17.75 29.8333V24H15.25ZM27.75 28.6667H24C23.31 28.6667 22.75 28.144 22.75 27.5V24H20.25V27.5C20.251 28.428 20.6464 29.3177 21.3494 29.9739C22.0525 30.63 23.0057 30.9991 24 31H27.75C28.0815 31 28.3995 30.8771 28.6339 30.6583C28.8683 30.4395 29 30.1428 29 29.8333C29 29.5239 28.8683 29.2272 28.6339 29.0084C28.3995 28.7896 28.0815 28.6667 27.75 28.6667Z" fill="#DFE8FF"></path></svg> 