<svg width="25" height="25" viewBox="0 0 25 25" fill="none" xmlns="http://www.w3.org/2000/svg">
<path d="M3.86642 15.9137C5.25115 17.3004 7.09518 18.1328 9.05112 18.2542C11.007 18.3756 12.9399 17.7775 14.4854 16.5727L19.8034 21.8907C19.992 22.0728 20.2446 22.1736 20.5068 22.1714C20.769 22.1691 21.0198 22.0639 21.2052 21.8785C21.3906 21.6931 21.4958 21.4423 21.4981 21.1801C21.5004 20.9179 21.3996 20.6653 21.2174 20.4767L15.8994 15.1587C17.1577 13.5439 17.7526 11.5098 17.5628 9.47146C17.373 7.43308 16.4127 5.54389 14.8779 4.18915C13.3431 2.83442 11.3493 2.1162 9.30308 2.18097C7.25691 2.24573 5.3125 3.08861 3.86642 4.53769C3.11921 5.28451 2.52648 6.17124 2.12207 7.14721C1.71767 8.12317 1.50952 9.16926 1.50952 10.2257C1.50952 11.2821 1.71767 12.3282 2.12207 13.3042C2.52648 14.2801 3.11921 15.1669 3.86642 15.9137ZM5.28042 5.95369C6.26899 4.96514 7.56974 4.34993 8.96104 4.21289C10.3523 4.07584 11.7481 4.42544 12.9106 5.20211C14.073 5.97879 14.9302 7.13449 15.3361 8.47231C15.742 9.81013 15.6715 11.2473 15.1366 12.539C14.6017 13.8306 13.6354 14.8968 12.4025 15.556C11.1696 16.2151 9.74634 16.4264 8.37514 16.1538C7.00393 15.8812 5.76966 15.1416 4.88261 14.061C3.99557 12.9804 3.51063 11.6257 3.51042 10.2277C3.50767 9.43327 3.66272 8.6462 3.96656 7.91217C4.27041 7.17814 4.717 6.51176 5.28042 5.95169V5.95369Z" fill="white"/>
</svg>
