<?xml version="1.0" encoding="utf-8"?>
<!-- Generator: Adobe Illustrator 26.2.1, SVG Export Plug-In . SVG Version: 6.00 Build 0)  -->
<svg version="1.1" id="Layer_1" xmlns="http://www.w3.org/2000/svg" xmlns:xlink="http://www.w3.org/1999/xlink" x="0px" y="0px"
	 viewBox="0 0 28 28" style="enable-background:new 0 0 28 28;" xml:space="preserve">
<style type="text/css">
	.st0{fill-rule:evenodd;clip-rule:evenodd;fill:#FFFFFF;}
	.st1{fill:#FFFFFF;}
</style>
<path class="st0" d="M12.3,4.1c-4.5,0-8.2,3.7-8.2,8.2s3.7,8.2,8.2,8.2s8.2-3.7,8.2-8.2C20.5,7.7,16.8,4.1,12.3,4.1z M2,12.3
	C2,6.6,6.6,2,12.3,2s10.3,4.6,10.3,10.3S18,22.6,12.3,22.6S2,18,2,12.3z"/>
<path class="st1" d="M19.9,18.3l5.8,5.8c0.4,0.4,0.4,1.1,0,1.5s-1.1,0.4-1.5,0l-5.8-5.8L19.9,18.3z"/>
</svg>
