<svg width="150" height="150" viewBox="0 0 150 150" fill="none" xmlns="http://www.w3.org/2000/svg">
<path d="M82.2739 72.4582L105.427 43.6506C106.487 42.3314 106.275 40.4042 104.954 39.3457C103.632 38.2875 101.702 38.4984 100.642 39.818L78.3411 67.5647L56.0409 39.818C55.4585 39.0935 54.5784 38.6719 53.6482 38.6719H35.587C34.4072 38.6719 33.332 39.3475 32.8214 40.4095C32.311 41.4715 32.456 42.7315 33.1946 43.6503L65.3778 83.6941L42.2251 112.502C41.1648 113.821 41.3766 115.748 42.6979 116.807C43.2642 117.26 43.9419 117.48 44.6157 117.48C45.5136 117.48 46.4043 117.088 47.0101 116.334L69.3106 88.5876L91.6108 116.334C92.1929 117.059 93.073 117.48 94.0032 117.48H112.064C112.066 117.48 112.068 117.48 112.069 117.48C113.763 117.48 115.137 116.11 115.137 114.418C115.137 113.638 114.844 112.925 114.362 112.385L82.2739 72.4582ZM95.4751 111.356L41.981 44.7964H52.1766L105.671 111.356H95.4751Z" fill="white"/>
</svg>
