<svg width="26" height="26" viewBox="0 0 26 26" fill="none" xmlns="http://www.w3.org/2000/svg">
<path d="M25.5938 19.175C25.5938 20.5563 24.4969 21.6532 23.1562 21.6532H2.84375C1.50313 21.6532 0.40625 20.5563 0.40625 19.175V6.82505C0.40625 5.4438 1.50313 4.34692 2.84375 4.34692H23.1562C24.4969 4.34692 25.5938 5.4438 25.5938 6.82505V19.175Z" fill="white"/>
<path d="M2.84375 4.34692H23.1562C24.4969 4.34692 25.5938 5.4438 25.5938 6.82505V11.3344" fill="#AED3D3"/>
<path d="M23.1566 4.34668H2.84414C2.07227 4.34668 1.34102 4.75293 0.894141 5.32168C0.853516 5.3623 0.812891 5.44355 0.772266 5.48418L0.650391 5.72793H25.3504C25.2691 5.56543 25.1879 5.44355 25.1066 5.32168C24.6598 4.7123 23.9691 4.34668 23.1566 4.34668Z" fill="#5B0218"/>
<path d="M0.40625 7.06836H25.5938V8.40898H0.40625V7.06836Z" fill="#8C1126"/>
<path d="M16.0055 8.36836H25.593V7.06836H11.6992L16.0055 8.36836Z" fill="#5B0218"/>
<path d="M0.40625 9.70898H25.5938V11.0496H0.40625V9.70898Z" fill="#8C1126"/>
<path d="M24.6187 11.009H25.5938V9.70898H20.3125L24.6187 11.009Z" fill="#5B0218"/>
<path d="M0.40625 12.3496H25.5938V13.6902H0.40625V12.3496Z" fill="#B22234"/>
<path d="M13.7723 13.6496H25.5941V12.3496H12.2285L13.7723 13.6496Z" fill="#8C1126"/>
<path d="M0.40625 14.9902H25.5938V16.3309H0.40625V14.9902Z" fill="#B22234"/>
<path d="M16.9008 16.2902H25.5945V14.9902H15.3164L16.9008 16.2902Z" fill="#8C1126"/>
<path d="M0.40625 17.6309H25.5938V18.9715H0.40625V17.6309Z" fill="#B22234"/>
<path d="M19.9879 18.9309H25.5941V17.6309H18.4441L19.9879 18.9309ZM0.650391 20.2715L0.772266 20.5152C0.812891 20.5559 0.853516 20.6371 0.894141 20.6777C1.34102 21.2871 2.03164 21.6527 2.84414 21.6527H23.1566C23.9285 21.6527 24.6598 21.2465 25.1066 20.6777C25.1879 20.5559 25.2691 20.3934 25.3504 20.2715H0.650391Z" fill="#8C1126"/>
<path d="M0.40625 6.82505V13.65H11.3344V4.34692H2.68125C1.42187 4.42817 0.40625 5.48442 0.40625 6.82505Z" fill="#3C3B6E"/>
<path d="M3.49297 5.2813L3.65547 4.75317L3.85859 5.2813H3.49297ZM5.68672 5.2813L5.84922 4.75317L6.01172 5.2813H5.68672ZM7.83984 5.2813L8.04297 4.75317L8.20547 5.2813H7.83984ZM10.0336 5.2813L10.1961 4.75317L10.3992 5.2813H10.0336ZM2.39609 6.21567L2.59922 5.68755L2.76172 6.21567H2.39609ZM4.58984 6.21567L4.75234 5.68755L4.95547 6.21567H4.58984ZM6.78359 6.21567L6.94609 5.68755L7.10859 6.21567H6.78359ZM8.93672 6.21567L9.09922 5.68755L9.30234 6.21567H8.93672ZM1.33984 7.15005L1.50234 6.62192L1.66484 7.15005H1.33984ZM3.49297 7.15005L3.65547 6.62192L3.85859 7.15005H3.49297ZM5.68672 7.15005L5.84922 6.62192L6.01172 7.15005H5.68672ZM7.83984 7.15005L8.04297 6.62192L8.20547 7.15005H7.83984ZM10.0336 7.15005L10.1961 6.62192L10.3992 7.15005H10.0336ZM2.43672 8.08442L2.59922 7.5563L2.80234 8.08442H2.43672ZM4.63047 8.08442L4.79297 7.5563L4.95547 8.08442H4.63047ZM6.78359 8.08442L6.98672 7.5563L7.14922 8.08442H6.78359ZM8.97734 8.08442L9.13984 7.5563L9.30234 8.08442H8.97734ZM1.33984 8.97817L1.54297 8.45005L1.70547 8.97817H1.33984ZM3.53359 8.97817L3.69609 8.45005L3.89922 8.97817H3.53359ZM5.72734 8.97817L5.88984 8.45005L6.05234 8.97817H5.72734ZM7.88047 8.97817L8.08359 8.45005L8.24609 8.97817H7.88047ZM10.0742 8.97817L10.2367 8.45005L10.3992 8.97817H10.0742ZM2.43672 9.91255L2.59922 9.38442L2.80234 9.91255H2.43672ZM4.63047 9.91255L4.79297 9.38442L4.95547 9.91255H4.63047ZM6.78359 9.91255L6.98672 9.38442L7.14922 9.91255H6.78359ZM8.97734 9.91255L9.13984 9.38442L9.34297 9.91255H8.97734ZM1.38047 10.8469L1.54297 10.3188L1.70547 10.8469H1.38047ZM3.57422 10.8469L3.73672 10.3188L3.89922 10.8469H3.57422ZM5.72734 10.8469L5.88984 10.3188L6.09297 10.8469H5.72734ZM7.92109 10.8469L8.08359 10.3188L8.24609 10.8469H7.92109ZM10.0742 10.8469L10.2773 10.3188L10.4398 10.8469H10.0742ZM2.43672 11.7813L2.59922 11.2125L2.80234 11.7813H2.43672ZM4.63047 11.7813L4.79297 11.2125L4.95547 11.7813H4.63047ZM6.78359 11.7813L6.98672 11.2125L7.14922 11.7813H6.78359ZM8.97734 11.7813L9.13984 11.2125L9.30234 11.7813H8.97734ZM1.33984 12.6751L1.54297 12.1469L1.70547 12.6751H1.33984ZM3.53359 12.6751L3.69609 12.1469L3.85859 12.6751H3.53359ZM5.68672 12.6751L5.88984 12.1469L6.05234 12.6751H5.68672ZM7.88047 12.6751L8.04297 12.1469L8.24609 12.6751H7.88047ZM10.0742 12.6751L10.2367 12.1469L10.3992 12.6751H10.0742Z" fill="white"/>
</svg>
