<svg width="17" height="17" viewBox="0 0 17 17" fill="none" xmlns="http://www.w3.org/2000/svg">
<g id="user 1" clip-path="url(#clip0_399_1717)">
<path id="Vector" d="M8.5 9.20825C10.8472 9.20825 12.75 7.30546 12.75 4.95825C12.75 2.61104 10.8472 0.708252 8.5 0.708252C6.15279 0.708252 4.25 2.61104 4.25 4.95825C4.25 7.30546 6.15279 9.20825 8.5 9.20825Z" fill="black"/>
<path id="Vector_2" d="M14.5493 11.5105C12.6839 10.5172 10.6129 9.97152 8.50016 9.91675C6.38744 9.97152 4.31644 10.5172 2.451 11.5105C1.92785 11.7766 1.48832 12.1819 1.18086 12.6818C0.873396 13.1818 0.709936 13.7569 0.708496 14.3438V14.8751C0.708496 15.2508 0.857752 15.6111 1.12343 15.8768C1.3891 16.1425 1.74944 16.2917 2.12516 16.2917H14.8752C15.2509 16.2917 15.6112 16.1425 15.8769 15.8768C16.1426 15.6111 16.2918 15.2508 16.2918 14.8751V14.358C16.293 13.7687 16.1308 13.1906 15.8232 12.6879C15.5156 12.1852 15.0746 11.7777 14.5493 11.5105Z" fill="black"/>
</g>
<defs>
<clipPath id="clip0_399_1717">
<rect width="17" height="17" fill="white"/>
</clipPath>
</defs>
</svg>
