<svg width="18" height="18" viewBox="0 0 18 18" fill="none" xmlns="http://www.w3.org/2000/svg">
<g clip-path="url(#clip0_22_17)">
<path d="M15.4827 1.56299H1.67017C1.24748 1.56299 0.842101 1.7309 0.543215 2.02979C0.244328 2.32867 0.076416 2.73405 0.076416 3.15674L0.076416 14.313C0.076416 14.7357 0.244328 15.1411 0.543215 15.4399C0.842101 15.7388 1.24748 15.9067 1.67017 15.9067H15.4827C15.9054 15.9067 16.3107 15.7388 16.6096 15.4399C16.9085 15.1411 17.0764 14.7357 17.0764 14.313V3.15674C17.0764 2.73405 16.9085 2.32867 16.6096 2.02979C16.3107 1.7309 15.9054 1.56299 15.4827 1.56299ZM14.4202 3.15674H15.4827V4.21924H14.4202V3.15674ZM12.8264 3.15674H13.8889V4.21924H12.8264V3.15674ZM11.2327 3.15674H12.2952V4.21924H11.2327V3.15674ZM16.0139 14.313C16.0139 14.4539 15.9579 14.589 15.8583 14.6886C15.7587 14.7883 15.6236 14.8442 15.4827 14.8442H1.67017C1.52927 14.8442 1.39414 14.7883 1.29452 14.6886C1.19489 14.589 1.13892 14.4539 1.13892 14.313V5.81299H16.0139V14.313Z" fill="#657079"/>
</g>
<defs>
<clipPath id="clip0_22_17">
<rect width="17" height="17" fill="white" transform="translate(0.076416 0.234863)"/>
</clipPath>
</defs>
</svg>
